%TF.GenerationSoftware,KiCad,Pcbnew,(6.0.5)*%
%TF.CreationDate,2022-12-29T01:36:19+05:30*%
%TF.ProjectId,rpi_hat,7270695f-6861-4742-9e6b-696361645f70,rev?*%
%TF.SameCoordinates,Original*%
%TF.FileFunction,Legend,Top*%
%TF.FilePolarity,Positive*%
%FSLAX46Y46*%
G04 Gerber Fmt 4.6, Leading zero omitted, Abs format (unit mm)*
G04 Created by KiCad (PCBNEW (6.0.5)) date 2022-12-29 01:36:19*
%MOMM*%
%LPD*%
G01*
G04 APERTURE LIST*
%ADD10C,0.100000*%
%ADD11C,0.150000*%
%ADD12C,0.120000*%
%ADD13C,0.127000*%
%ADD14C,0.200000*%
G04 APERTURE END LIST*
D10*
X100000000Y-50000000D02*
X185000000Y-50000000D01*
X185000000Y-50000000D02*
X185000000Y-106000000D01*
X185000000Y-106000000D02*
X100000000Y-106000000D01*
X100000000Y-106000000D02*
X100000000Y-50000000D01*
D11*
X108783214Y-101172428D02*
X108583214Y-100886714D01*
X108440357Y-101172428D02*
X108440357Y-100572428D01*
X108668928Y-100572428D01*
X108726071Y-100601000D01*
X108754642Y-100629571D01*
X108783214Y-100686714D01*
X108783214Y-100772428D01*
X108754642Y-100829571D01*
X108726071Y-100858142D01*
X108668928Y-100886714D01*
X108440357Y-100886714D01*
X109040357Y-101172428D02*
X109040357Y-100572428D01*
X109268928Y-100572428D01*
X109326071Y-100601000D01*
X109354642Y-100629571D01*
X109383214Y-100686714D01*
X109383214Y-100772428D01*
X109354642Y-100829571D01*
X109326071Y-100858142D01*
X109268928Y-100886714D01*
X109040357Y-100886714D01*
X109640357Y-101172428D02*
X109640357Y-100572428D01*
X109926071Y-100943857D02*
X110383214Y-100943857D01*
X110954642Y-101172428D02*
X110668928Y-101172428D01*
X110668928Y-100572428D01*
X111154642Y-100858142D02*
X111354642Y-100858142D01*
X111440357Y-101172428D02*
X111154642Y-101172428D01*
X111154642Y-100572428D01*
X111440357Y-100572428D01*
X111697500Y-101172428D02*
X111697500Y-100572428D01*
X111840357Y-100572428D01*
X111926071Y-100601000D01*
X111983214Y-100658142D01*
X112011785Y-100715285D01*
X112040357Y-100829571D01*
X112040357Y-100915285D01*
X112011785Y-101029571D01*
X111983214Y-101086714D01*
X111926071Y-101143857D01*
X111840357Y-101172428D01*
X111697500Y-101172428D01*
X112297500Y-100943857D02*
X112754642Y-100943857D01*
X113040357Y-101172428D02*
X113040357Y-100572428D01*
X113040357Y-100858142D02*
X113383214Y-100858142D01*
X113383214Y-101172428D02*
X113383214Y-100572428D01*
X113640357Y-101001000D02*
X113926071Y-101001000D01*
X113583214Y-101172428D02*
X113783214Y-100572428D01*
X113983214Y-101172428D01*
X114097500Y-100572428D02*
X114440357Y-100572428D01*
X114268928Y-101172428D02*
X114268928Y-100572428D01*
X108383214Y-101738428D02*
X108526071Y-102138428D01*
X108668928Y-101738428D01*
X109211785Y-102138428D02*
X108868928Y-102138428D01*
X109040357Y-102138428D02*
X109040357Y-101538428D01*
X108983214Y-101624142D01*
X108926071Y-101681285D01*
X108868928Y-101709857D01*
X109468928Y-102081285D02*
X109497500Y-102109857D01*
X109468928Y-102138428D01*
X109440357Y-102109857D01*
X109468928Y-102081285D01*
X109468928Y-102138428D01*
X109868928Y-101538428D02*
X109926071Y-101538428D01*
X109983214Y-101567000D01*
X110011785Y-101595571D01*
X110040357Y-101652714D01*
X110068928Y-101767000D01*
X110068928Y-101909857D01*
X110040357Y-102024142D01*
X110011785Y-102081285D01*
X109983214Y-102109857D01*
X109926071Y-102138428D01*
X109868928Y-102138428D01*
X109811785Y-102109857D01*
X109783214Y-102081285D01*
X109754642Y-102024142D01*
X109726071Y-101909857D01*
X109726071Y-101767000D01*
X109754642Y-101652714D01*
X109783214Y-101595571D01*
X109811785Y-101567000D01*
X109868928Y-101538428D01*
X108411785Y-102561571D02*
X108440357Y-102533000D01*
X108497500Y-102504428D01*
X108640357Y-102504428D01*
X108697500Y-102533000D01*
X108726071Y-102561571D01*
X108754642Y-102618714D01*
X108754642Y-102675857D01*
X108726071Y-102761571D01*
X108383214Y-103104428D01*
X108754642Y-103104428D01*
X109097500Y-102761571D02*
X109040357Y-102733000D01*
X109011785Y-102704428D01*
X108983214Y-102647285D01*
X108983214Y-102618714D01*
X109011785Y-102561571D01*
X109040357Y-102533000D01*
X109097500Y-102504428D01*
X109211785Y-102504428D01*
X109268928Y-102533000D01*
X109297500Y-102561571D01*
X109326071Y-102618714D01*
X109326071Y-102647285D01*
X109297500Y-102704428D01*
X109268928Y-102733000D01*
X109211785Y-102761571D01*
X109097500Y-102761571D01*
X109040357Y-102790142D01*
X109011785Y-102818714D01*
X108983214Y-102875857D01*
X108983214Y-102990142D01*
X109011785Y-103047285D01*
X109040357Y-103075857D01*
X109097500Y-103104428D01*
X109211785Y-103104428D01*
X109268928Y-103075857D01*
X109297500Y-103047285D01*
X109326071Y-102990142D01*
X109326071Y-102875857D01*
X109297500Y-102818714D01*
X109268928Y-102790142D01*
X109211785Y-102761571D01*
X109583214Y-103047285D02*
X109611785Y-103075857D01*
X109583214Y-103104428D01*
X109554642Y-103075857D01*
X109583214Y-103047285D01*
X109583214Y-103104428D01*
X110183214Y-103104428D02*
X109840357Y-103104428D01*
X110011785Y-103104428D02*
X110011785Y-102504428D01*
X109954642Y-102590142D01*
X109897500Y-102647285D01*
X109840357Y-102675857D01*
X110411785Y-102561571D02*
X110440357Y-102533000D01*
X110497500Y-102504428D01*
X110640357Y-102504428D01*
X110697500Y-102533000D01*
X110726071Y-102561571D01*
X110754642Y-102618714D01*
X110754642Y-102675857D01*
X110726071Y-102761571D01*
X110383214Y-103104428D01*
X110754642Y-103104428D01*
X111011785Y-103047285D02*
X111040357Y-103075857D01*
X111011785Y-103104428D01*
X110983214Y-103075857D01*
X111011785Y-103047285D01*
X111011785Y-103104428D01*
X111268928Y-102561571D02*
X111297500Y-102533000D01*
X111354642Y-102504428D01*
X111497500Y-102504428D01*
X111554642Y-102533000D01*
X111583214Y-102561571D01*
X111611785Y-102618714D01*
X111611785Y-102675857D01*
X111583214Y-102761571D01*
X111240357Y-103104428D01*
X111611785Y-103104428D01*
X111983214Y-102504428D02*
X112040357Y-102504428D01*
X112097500Y-102533000D01*
X112126071Y-102561571D01*
X112154642Y-102618714D01*
X112183214Y-102733000D01*
X112183214Y-102875857D01*
X112154642Y-102990142D01*
X112126071Y-103047285D01*
X112097500Y-103075857D01*
X112040357Y-103104428D01*
X111983214Y-103104428D01*
X111926071Y-103075857D01*
X111897500Y-103047285D01*
X111868928Y-102990142D01*
X111840357Y-102875857D01*
X111840357Y-102733000D01*
X111868928Y-102618714D01*
X111897500Y-102561571D01*
X111926071Y-102533000D01*
X111983214Y-102504428D01*
X112411785Y-102561571D02*
X112440357Y-102533000D01*
X112497500Y-102504428D01*
X112640357Y-102504428D01*
X112697500Y-102533000D01*
X112726071Y-102561571D01*
X112754642Y-102618714D01*
X112754642Y-102675857D01*
X112726071Y-102761571D01*
X112383214Y-103104428D01*
X112754642Y-103104428D01*
X112983214Y-102561571D02*
X113011785Y-102533000D01*
X113068928Y-102504428D01*
X113211785Y-102504428D01*
X113268928Y-102533000D01*
X113297500Y-102561571D01*
X113326071Y-102618714D01*
X113326071Y-102675857D01*
X113297500Y-102761571D01*
X112954642Y-103104428D01*
X113326071Y-103104428D01*
X108411785Y-103670428D02*
X108840357Y-103670428D01*
X108583214Y-103413285D02*
X108411785Y-104184714D01*
X108783214Y-103927571D02*
X108354642Y-103927571D01*
X108611785Y-104184714D02*
X108783214Y-103413285D01*
X108954642Y-103670428D02*
X109183214Y-103670428D01*
X109040357Y-103470428D02*
X109040357Y-103984714D01*
X109068928Y-104041857D01*
X109126071Y-104070428D01*
X109183214Y-104070428D01*
X109383214Y-104070428D02*
X109383214Y-103470428D01*
X109640357Y-104070428D02*
X109640357Y-103756142D01*
X109611785Y-103699000D01*
X109554642Y-103670428D01*
X109468928Y-103670428D01*
X109411785Y-103699000D01*
X109383214Y-103727571D01*
X109926071Y-104070428D02*
X109926071Y-103670428D01*
X109926071Y-103470428D02*
X109897500Y-103499000D01*
X109926071Y-103527571D01*
X109954642Y-103499000D01*
X109926071Y-103470428D01*
X109926071Y-103527571D01*
X110183214Y-104041857D02*
X110240357Y-104070428D01*
X110354642Y-104070428D01*
X110411785Y-104041857D01*
X110440357Y-103984714D01*
X110440357Y-103956142D01*
X110411785Y-103899000D01*
X110354642Y-103870428D01*
X110268928Y-103870428D01*
X110211785Y-103841857D01*
X110183214Y-103784714D01*
X110183214Y-103756142D01*
X110211785Y-103699000D01*
X110268928Y-103670428D01*
X110354642Y-103670428D01*
X110411785Y-103699000D01*
X110697500Y-104070428D02*
X110697500Y-103670428D01*
X110697500Y-103470428D02*
X110668928Y-103499000D01*
X110697500Y-103527571D01*
X110726071Y-103499000D01*
X110697500Y-103470428D01*
X110697500Y-103527571D01*
X110954642Y-104041857D02*
X111011785Y-104070428D01*
X111126071Y-104070428D01*
X111183214Y-104041857D01*
X111211785Y-103984714D01*
X111211785Y-103956142D01*
X111183214Y-103899000D01*
X111126071Y-103870428D01*
X111040357Y-103870428D01*
X110983214Y-103841857D01*
X110954642Y-103784714D01*
X110954642Y-103756142D01*
X110983214Y-103699000D01*
X111040357Y-103670428D01*
X111126071Y-103670428D01*
X111183214Y-103699000D01*
X111468928Y-103670428D02*
X111468928Y-104184714D01*
X111440357Y-104241857D01*
X111383214Y-104270428D01*
X111354642Y-104270428D01*
X111468928Y-103470428D02*
X111440357Y-103499000D01*
X111468928Y-103527571D01*
X111497500Y-103499000D01*
X111468928Y-103470428D01*
X111468928Y-103527571D01*
X111840357Y-104070428D02*
X111783214Y-104041857D01*
X111754642Y-104013285D01*
X111726071Y-103956142D01*
X111726071Y-103784714D01*
X111754642Y-103727571D01*
X111783214Y-103699000D01*
X111840357Y-103670428D01*
X111926071Y-103670428D01*
X111983214Y-103699000D01*
X112011785Y-103727571D01*
X112040357Y-103784714D01*
X112040357Y-103956142D01*
X112011785Y-104013285D01*
X111983214Y-104041857D01*
X111926071Y-104070428D01*
X111840357Y-104070428D01*
X112240357Y-103670428D02*
X112383214Y-104070428D01*
X112526071Y-103670428D02*
X112383214Y-104070428D01*
X112326071Y-104213285D01*
X112297500Y-104241857D01*
X112240357Y-104270428D01*
X112754642Y-103670428D02*
X112754642Y-104184714D01*
X112726071Y-104241857D01*
X112668928Y-104270428D01*
X112640357Y-104270428D01*
X112754642Y-103470428D02*
X112726071Y-103499000D01*
X112754642Y-103527571D01*
X112783214Y-103499000D01*
X112754642Y-103470428D01*
X112754642Y-103527571D01*
X113297500Y-104070428D02*
X113297500Y-103756142D01*
X113268928Y-103699000D01*
X113211785Y-103670428D01*
X113097500Y-103670428D01*
X113040357Y-103699000D01*
X113297500Y-104041857D02*
X113240357Y-104070428D01*
X113097500Y-104070428D01*
X113040357Y-104041857D01*
X113011785Y-103984714D01*
X113011785Y-103927571D01*
X113040357Y-103870428D01*
X113097500Y-103841857D01*
X113240357Y-103841857D01*
X113297500Y-103813285D01*
X113840357Y-104041857D02*
X113783214Y-104070428D01*
X113668928Y-104070428D01*
X113611785Y-104041857D01*
X113583214Y-104013285D01*
X113554642Y-103956142D01*
X113554642Y-103784714D01*
X113583214Y-103727571D01*
X113611785Y-103699000D01*
X113668928Y-103670428D01*
X113783214Y-103670428D01*
X113840357Y-103699000D01*
X114183214Y-104070428D02*
X114126071Y-104041857D01*
X114097500Y-104013285D01*
X114068928Y-103956142D01*
X114068928Y-103784714D01*
X114097500Y-103727571D01*
X114126071Y-103699000D01*
X114183214Y-103670428D01*
X114268928Y-103670428D01*
X114326071Y-103699000D01*
X114354642Y-103727571D01*
X114383214Y-103784714D01*
X114383214Y-103956142D01*
X114354642Y-104013285D01*
X114326071Y-104041857D01*
X114268928Y-104070428D01*
X114183214Y-104070428D01*
X114640357Y-104070428D02*
X114640357Y-103470428D01*
X114640357Y-103699000D02*
X114697500Y-103670428D01*
X114811785Y-103670428D01*
X114868928Y-103699000D01*
X114897500Y-103727571D01*
X114926071Y-103784714D01*
X114926071Y-103956142D01*
X114897500Y-104013285D01*
X114868928Y-104041857D01*
X114811785Y-104070428D01*
X114697500Y-104070428D01*
X114640357Y-104041857D01*
%TO.C,D1*%
X107261904Y-66952380D02*
X107261904Y-65952380D01*
X107500000Y-65952380D01*
X107642857Y-66000000D01*
X107738095Y-66095238D01*
X107785714Y-66190476D01*
X107833333Y-66380952D01*
X107833333Y-66523809D01*
X107785714Y-66714285D01*
X107738095Y-66809523D01*
X107642857Y-66904761D01*
X107500000Y-66952380D01*
X107261904Y-66952380D01*
X108785714Y-66952380D02*
X108214285Y-66952380D01*
X108500000Y-66952380D02*
X108500000Y-65952380D01*
X108404761Y-66095238D01*
X108309523Y-66190476D01*
X108214285Y-66238095D01*
X112435714Y-65052380D02*
X111864285Y-65052380D01*
X112150000Y-65052380D02*
X112150000Y-64052380D01*
X112054761Y-64195238D01*
X111959523Y-64290476D01*
X111864285Y-64338095D01*
%TO.C,D5*%
X133561904Y-82052380D02*
X133561904Y-81052380D01*
X133800000Y-81052380D01*
X133942857Y-81100000D01*
X134038095Y-81195238D01*
X134085714Y-81290476D01*
X134133333Y-81480952D01*
X134133333Y-81623809D01*
X134085714Y-81814285D01*
X134038095Y-81909523D01*
X133942857Y-82004761D01*
X133800000Y-82052380D01*
X133561904Y-82052380D01*
X135038095Y-81052380D02*
X134561904Y-81052380D01*
X134514285Y-81528571D01*
X134561904Y-81480952D01*
X134657142Y-81433333D01*
X134895238Y-81433333D01*
X134990476Y-81480952D01*
X135038095Y-81528571D01*
X135085714Y-81623809D01*
X135085714Y-81861904D01*
X135038095Y-81957142D01*
X134990476Y-82004761D01*
X134895238Y-82052380D01*
X134657142Y-82052380D01*
X134561904Y-82004761D01*
X134514285Y-81957142D01*
X142435714Y-80052380D02*
X141864285Y-80052380D01*
X142150000Y-80052380D02*
X142150000Y-79052380D01*
X142054761Y-79195238D01*
X141959523Y-79290476D01*
X141864285Y-79338095D01*
%TO.C,U1*%
X104613095Y-47717380D02*
X104613095Y-48526904D01*
X104660714Y-48622142D01*
X104708333Y-48669761D01*
X104803571Y-48717380D01*
X104994047Y-48717380D01*
X105089285Y-48669761D01*
X105136904Y-48622142D01*
X105184523Y-48526904D01*
X105184523Y-47717380D01*
X106184523Y-48717380D02*
X105613095Y-48717380D01*
X105898809Y-48717380D02*
X105898809Y-47717380D01*
X105803571Y-47860238D01*
X105708333Y-47955476D01*
X105613095Y-48003095D01*
%TO.C,D6*%
X162511904Y-81152380D02*
X162511904Y-80152380D01*
X162750000Y-80152380D01*
X162892857Y-80200000D01*
X162988095Y-80295238D01*
X163035714Y-80390476D01*
X163083333Y-80580952D01*
X163083333Y-80723809D01*
X163035714Y-80914285D01*
X162988095Y-81009523D01*
X162892857Y-81104761D01*
X162750000Y-81152380D01*
X162511904Y-81152380D01*
X163940476Y-80152380D02*
X163750000Y-80152380D01*
X163654761Y-80200000D01*
X163607142Y-80247619D01*
X163511904Y-80390476D01*
X163464285Y-80580952D01*
X163464285Y-80961904D01*
X163511904Y-81057142D01*
X163559523Y-81104761D01*
X163654761Y-81152380D01*
X163845238Y-81152380D01*
X163940476Y-81104761D01*
X163988095Y-81057142D01*
X164035714Y-80961904D01*
X164035714Y-80723809D01*
X163988095Y-80628571D01*
X163940476Y-80580952D01*
X163845238Y-80533333D01*
X163654761Y-80533333D01*
X163559523Y-80580952D01*
X163511904Y-80628571D01*
X163464285Y-80723809D01*
X172435714Y-80052380D02*
X171864285Y-80052380D01*
X172150000Y-80052380D02*
X172150000Y-79052380D01*
X172054761Y-79195238D01*
X171959523Y-79290476D01*
X171864285Y-79338095D01*
%TO.C,D9*%
X167261904Y-96952380D02*
X167261904Y-95952380D01*
X167500000Y-95952380D01*
X167642857Y-96000000D01*
X167738095Y-96095238D01*
X167785714Y-96190476D01*
X167833333Y-96380952D01*
X167833333Y-96523809D01*
X167785714Y-96714285D01*
X167738095Y-96809523D01*
X167642857Y-96904761D01*
X167500000Y-96952380D01*
X167261904Y-96952380D01*
X168309523Y-96952380D02*
X168500000Y-96952380D01*
X168595238Y-96904761D01*
X168642857Y-96857142D01*
X168738095Y-96714285D01*
X168785714Y-96523809D01*
X168785714Y-96142857D01*
X168738095Y-96047619D01*
X168690476Y-96000000D01*
X168595238Y-95952380D01*
X168404761Y-95952380D01*
X168309523Y-96000000D01*
X168261904Y-96047619D01*
X168214285Y-96142857D01*
X168214285Y-96380952D01*
X168261904Y-96476190D01*
X168309523Y-96523809D01*
X168404761Y-96571428D01*
X168595238Y-96571428D01*
X168690476Y-96523809D01*
X168738095Y-96476190D01*
X168785714Y-96380952D01*
X172435714Y-95052380D02*
X171864285Y-95052380D01*
X172150000Y-95052380D02*
X172150000Y-94052380D01*
X172054761Y-94195238D01*
X171959523Y-94290476D01*
X171864285Y-94338095D01*
%TO.C,D3*%
X167261904Y-66952380D02*
X167261904Y-65952380D01*
X167500000Y-65952380D01*
X167642857Y-66000000D01*
X167738095Y-66095238D01*
X167785714Y-66190476D01*
X167833333Y-66380952D01*
X167833333Y-66523809D01*
X167785714Y-66714285D01*
X167738095Y-66809523D01*
X167642857Y-66904761D01*
X167500000Y-66952380D01*
X167261904Y-66952380D01*
X168166666Y-65952380D02*
X168785714Y-65952380D01*
X168452380Y-66333333D01*
X168595238Y-66333333D01*
X168690476Y-66380952D01*
X168738095Y-66428571D01*
X168785714Y-66523809D01*
X168785714Y-66761904D01*
X168738095Y-66857142D01*
X168690476Y-66904761D01*
X168595238Y-66952380D01*
X168309523Y-66952380D01*
X168214285Y-66904761D01*
X168166666Y-66857142D01*
X172435714Y-65052380D02*
X171864285Y-65052380D01*
X172150000Y-65052380D02*
X172150000Y-64052380D01*
X172054761Y-64195238D01*
X171959523Y-64290476D01*
X171864285Y-64338095D01*
%TO.C,D2*%
X137261904Y-66952380D02*
X137261904Y-65952380D01*
X137500000Y-65952380D01*
X137642857Y-66000000D01*
X137738095Y-66095238D01*
X137785714Y-66190476D01*
X137833333Y-66380952D01*
X137833333Y-66523809D01*
X137785714Y-66714285D01*
X137738095Y-66809523D01*
X137642857Y-66904761D01*
X137500000Y-66952380D01*
X137261904Y-66952380D01*
X138214285Y-66047619D02*
X138261904Y-66000000D01*
X138357142Y-65952380D01*
X138595238Y-65952380D01*
X138690476Y-66000000D01*
X138738095Y-66047619D01*
X138785714Y-66142857D01*
X138785714Y-66238095D01*
X138738095Y-66380952D01*
X138166666Y-66952380D01*
X138785714Y-66952380D01*
X142435714Y-65052380D02*
X141864285Y-65052380D01*
X142150000Y-65052380D02*
X142150000Y-64052380D01*
X142054761Y-64195238D01*
X141959523Y-64290476D01*
X141864285Y-64338095D01*
%TO.C,D4*%
X106361904Y-82002380D02*
X106361904Y-81002380D01*
X106600000Y-81002380D01*
X106742857Y-81050000D01*
X106838095Y-81145238D01*
X106885714Y-81240476D01*
X106933333Y-81430952D01*
X106933333Y-81573809D01*
X106885714Y-81764285D01*
X106838095Y-81859523D01*
X106742857Y-81954761D01*
X106600000Y-82002380D01*
X106361904Y-82002380D01*
X107790476Y-81335714D02*
X107790476Y-82002380D01*
X107552380Y-80954761D02*
X107314285Y-81669047D01*
X107933333Y-81669047D01*
X112435714Y-80052380D02*
X111864285Y-80052380D01*
X112150000Y-80052380D02*
X112150000Y-79052380D01*
X112054761Y-79195238D01*
X111959523Y-79290476D01*
X111864285Y-79338095D01*
%TO.C,D7*%
X107261904Y-96952380D02*
X107261904Y-95952380D01*
X107500000Y-95952380D01*
X107642857Y-96000000D01*
X107738095Y-96095238D01*
X107785714Y-96190476D01*
X107833333Y-96380952D01*
X107833333Y-96523809D01*
X107785714Y-96714285D01*
X107738095Y-96809523D01*
X107642857Y-96904761D01*
X107500000Y-96952380D01*
X107261904Y-96952380D01*
X108166666Y-95952380D02*
X108833333Y-95952380D01*
X108404761Y-96952380D01*
X112435714Y-95052380D02*
X111864285Y-95052380D01*
X112150000Y-95052380D02*
X112150000Y-94052380D01*
X112054761Y-94195238D01*
X111959523Y-94290476D01*
X111864285Y-94338095D01*
%TO.C,D8*%
X137261904Y-96952380D02*
X137261904Y-95952380D01*
X137500000Y-95952380D01*
X137642857Y-96000000D01*
X137738095Y-96095238D01*
X137785714Y-96190476D01*
X137833333Y-96380952D01*
X137833333Y-96523809D01*
X137785714Y-96714285D01*
X137738095Y-96809523D01*
X137642857Y-96904761D01*
X137500000Y-96952380D01*
X137261904Y-96952380D01*
X138404761Y-96380952D02*
X138309523Y-96333333D01*
X138261904Y-96285714D01*
X138214285Y-96190476D01*
X138214285Y-96142857D01*
X138261904Y-96047619D01*
X138309523Y-96000000D01*
X138404761Y-95952380D01*
X138595238Y-95952380D01*
X138690476Y-96000000D01*
X138738095Y-96047619D01*
X138785714Y-96142857D01*
X138785714Y-96190476D01*
X138738095Y-96285714D01*
X138690476Y-96333333D01*
X138595238Y-96380952D01*
X138404761Y-96380952D01*
X138309523Y-96428571D01*
X138261904Y-96476190D01*
X138214285Y-96571428D01*
X138214285Y-96761904D01*
X138261904Y-96857142D01*
X138309523Y-96904761D01*
X138404761Y-96952380D01*
X138595238Y-96952380D01*
X138690476Y-96904761D01*
X138738095Y-96857142D01*
X138785714Y-96761904D01*
X138785714Y-96571428D01*
X138738095Y-96476190D01*
X138690476Y-96428571D01*
X138595238Y-96380952D01*
X142435714Y-95052380D02*
X141864285Y-95052380D01*
X142150000Y-95052380D02*
X142150000Y-94052380D01*
X142054761Y-94195238D01*
X141959523Y-94290476D01*
X141864285Y-94338095D01*
D12*
%TO.C,D1*%
X111650000Y-60250000D02*
X104350000Y-60250000D01*
X111650000Y-65750000D02*
X104350000Y-65750000D01*
X104350000Y-60250000D02*
X104350000Y-61400000D01*
%TO.C,D5*%
X134350000Y-75250000D02*
X134350000Y-76400000D01*
X141650000Y-75250000D02*
X134350000Y-75250000D01*
X141650000Y-80750000D02*
X134350000Y-80750000D01*
D13*
%TO.C,U1*%
X103200000Y-105900000D02*
X182200000Y-105900000D01*
X100200000Y-52900000D02*
X100200000Y-102900000D01*
X182200000Y-49900000D02*
X103200000Y-49900000D01*
X185200000Y-102900000D02*
X185200000Y-52900000D01*
X182200000Y-105900000D02*
G75*
G03*
X185200000Y-102900000I0J3000000D01*
G01*
X100200000Y-102900000D02*
G75*
G03*
X103200000Y-105900000I3000001J1D01*
G01*
X185200000Y-52900000D02*
G75*
G03*
X182200000Y-49900000I-3000000J0D01*
G01*
X103200000Y-49900000D02*
G75*
G03*
X100200000Y-52900000I1J-3000001D01*
G01*
D14*
X99400000Y-54900000D02*
G75*
G03*
X99400000Y-54900000I-100000J0D01*
G01*
D12*
%TO.C,D6*%
X171650000Y-80750000D02*
X164350000Y-80750000D01*
X171650000Y-75250000D02*
X164350000Y-75250000D01*
X164350000Y-75250000D02*
X164350000Y-76400000D01*
%TO.C,D9*%
X171650000Y-90250000D02*
X164350000Y-90250000D01*
X164350000Y-90250000D02*
X164350000Y-91400000D01*
X171650000Y-95750000D02*
X164350000Y-95750000D01*
%TO.C,D3*%
X171650000Y-60250000D02*
X164350000Y-60250000D01*
X171650000Y-65750000D02*
X164350000Y-65750000D01*
X164350000Y-60250000D02*
X164350000Y-61400000D01*
%TO.C,D2*%
X134350000Y-60250000D02*
X134350000Y-61400000D01*
X141650000Y-65750000D02*
X134350000Y-65750000D01*
X141650000Y-60250000D02*
X134350000Y-60250000D01*
%TO.C,D4*%
X111650000Y-75250000D02*
X104350000Y-75250000D01*
X104350000Y-75250000D02*
X104350000Y-76400000D01*
X111650000Y-80750000D02*
X104350000Y-80750000D01*
%TO.C,D7*%
X111650000Y-95750000D02*
X104350000Y-95750000D01*
X104350000Y-90250000D02*
X104350000Y-91400000D01*
X111650000Y-90250000D02*
X104350000Y-90250000D01*
%TO.C,D8*%
X141650000Y-95750000D02*
X134350000Y-95750000D01*
X141650000Y-90250000D02*
X134350000Y-90250000D01*
X134350000Y-90250000D02*
X134350000Y-91400000D01*
%TD*%
M02*
