M48
; DRILL file {KiCad (6.0.5)} date Wed Dec 28 23:50:46 2022
; FORMAT={-:-/ absolute / inch / decimal}
; #@! TF.CreationDate,2022-12-28T23:50:46+05:30
; #@! TF.GenerationSoftware,Kicad,Pcbnew,(6.0.5)
; #@! TF.FileFunction,Plated,1,2,PTH
FMAT,2
INCH
; #@! TA.AperFunction,Plated,PTH,ViaDrill
T1C0.0157
; #@! TA.AperFunction,Plated,PTH,ComponentDrill
T2C0.0394
%
G90
G05
T1
X4.561Y-2.561
X4.563Y-3.1516
X4.563Y-3.7421
X5.1535Y-2.563
X5.1535Y-3.1516
X5.1555Y-3.7421
X5.7441Y-2.561
X5.7441Y-3.1516
X5.7441Y-3.7402
T2
X4.3382Y-2.0791
X4.3382Y-2.1791
X4.4382Y-2.0791
X4.4382Y-2.1791
X4.5382Y-2.0791
X4.5382Y-2.1791
X4.6382Y-2.0791
X4.6382Y-2.1791
X4.7382Y-2.0791
X4.7382Y-2.1791
X4.8382Y-2.0791
X4.8382Y-2.1791
X4.9382Y-2.0791
X4.9382Y-2.1791
X5.0382Y-2.0791
X5.0382Y-2.1791
X5.1382Y-2.0791
X5.1382Y-2.1791
X5.2382Y-2.0791
X5.2382Y-2.1791
X5.3382Y-2.0791
X5.3382Y-2.1791
X5.4382Y-2.0791
X5.4382Y-2.1791
X5.5382Y-2.0791
X5.5382Y-2.1791
X5.6382Y-2.0791
X5.6382Y-2.1791
X5.7382Y-2.0791
X5.7382Y-2.1791
X5.8382Y-2.0791
X5.8382Y-2.1791
X5.9382Y-2.0791
X5.9382Y-2.1791
X6.0382Y-2.0791
X6.0382Y-2.1791
X6.1382Y-2.0791
X6.1382Y-2.1791
X6.2382Y-2.0791
X6.2382Y-2.1791
T0
M30
