%TF.GenerationSoftware,KiCad,Pcbnew,(6.0.5)*%
%TF.CreationDate,2022-12-28T23:50:48+05:30*%
%TF.ProjectId,rpi_hat,7270695f-6861-4742-9e6b-696361645f70,rev?*%
%TF.SameCoordinates,Original*%
%TF.FileFunction,Soldermask,Bot*%
%TF.FilePolarity,Negative*%
%FSLAX46Y46*%
G04 Gerber Fmt 4.6, Leading zero omitted, Abs format (unit mm)*
G04 Created by KiCad (PCBNEW (6.0.5)) date 2022-12-28 23:50:48*
%MOMM*%
%LPD*%
G01*
G04 APERTURE LIST*
%ADD10O,1.700000X1.700000*%
%ADD11R,1.700000X1.700000*%
%ADD12C,6.000000*%
G04 APERTURE END LIST*
D10*
%TO.C,U1*%
X110190000Y-52810000D03*
X110190000Y-55350000D03*
X112730000Y-52810000D03*
X112730000Y-55350000D03*
X115270000Y-52810000D03*
X115270000Y-55350000D03*
X117810000Y-52810000D03*
X117810000Y-55350000D03*
X120350000Y-52810000D03*
X120350000Y-55350000D03*
X122890000Y-52810000D03*
X122890000Y-55350000D03*
X125430000Y-52810000D03*
X125430000Y-55350000D03*
X127970000Y-52810000D03*
X127970000Y-55350000D03*
X130510000Y-52810000D03*
X130510000Y-55350000D03*
X133050000Y-52810000D03*
X133050000Y-55350000D03*
X135590000Y-52810000D03*
X135590000Y-55350000D03*
X138130000Y-52810000D03*
X138130000Y-55350000D03*
X140670000Y-52810000D03*
X140670000Y-55350000D03*
X143210000Y-52810000D03*
X143210000Y-55350000D03*
X145750000Y-52810000D03*
X145750000Y-55350000D03*
X148290000Y-52810000D03*
X148290000Y-55350000D03*
X150830000Y-52810000D03*
X150830000Y-55350000D03*
X153370000Y-52810000D03*
X153370000Y-55350000D03*
X155910000Y-52810000D03*
X155910000Y-55350000D03*
X158450000Y-52810000D03*
D11*
X158450000Y-55350000D03*
D12*
X163320000Y-54080000D03*
X163320000Y-77080000D03*
X105320000Y-54080000D03*
X105320000Y-77080000D03*
%TD*%
M02*
