%TF.GenerationSoftware,KiCad,Pcbnew,(6.0.5)*%
%TF.CreationDate,2022-12-28T23:50:48+05:30*%
%TF.ProjectId,rpi_hat,7270695f-6861-4742-9e6b-696361645f70,rev?*%
%TF.SameCoordinates,Original*%
%TF.FileFunction,Legend,Top*%
%TF.FilePolarity,Positive*%
%FSLAX46Y46*%
G04 Gerber Fmt 4.6, Leading zero omitted, Abs format (unit mm)*
G04 Created by KiCad (PCBNEW (6.0.5)) date 2022-12-28 23:50:48*
%MOMM*%
%LPD*%
G01*
G04 APERTURE LIST*
%ADD10C,0.150000*%
%ADD11C,0.120000*%
G04 APERTURE END LIST*
D10*
X104083214Y-98572428D02*
X103883214Y-98286714D01*
X103740357Y-98572428D02*
X103740357Y-97972428D01*
X103968928Y-97972428D01*
X104026071Y-98001000D01*
X104054642Y-98029571D01*
X104083214Y-98086714D01*
X104083214Y-98172428D01*
X104054642Y-98229571D01*
X104026071Y-98258142D01*
X103968928Y-98286714D01*
X103740357Y-98286714D01*
X104340357Y-98572428D02*
X104340357Y-97972428D01*
X104568928Y-97972428D01*
X104626071Y-98001000D01*
X104654642Y-98029571D01*
X104683214Y-98086714D01*
X104683214Y-98172428D01*
X104654642Y-98229571D01*
X104626071Y-98258142D01*
X104568928Y-98286714D01*
X104340357Y-98286714D01*
X104940357Y-98572428D02*
X104940357Y-97972428D01*
X105226071Y-98343857D02*
X105683214Y-98343857D01*
X106254642Y-98572428D02*
X105968928Y-98572428D01*
X105968928Y-97972428D01*
X106454642Y-98258142D02*
X106654642Y-98258142D01*
X106740357Y-98572428D02*
X106454642Y-98572428D01*
X106454642Y-97972428D01*
X106740357Y-97972428D01*
X106997500Y-98572428D02*
X106997500Y-97972428D01*
X107140357Y-97972428D01*
X107226071Y-98001000D01*
X107283214Y-98058142D01*
X107311785Y-98115285D01*
X107340357Y-98229571D01*
X107340357Y-98315285D01*
X107311785Y-98429571D01*
X107283214Y-98486714D01*
X107226071Y-98543857D01*
X107140357Y-98572428D01*
X106997500Y-98572428D01*
X107597500Y-98343857D02*
X108054642Y-98343857D01*
X108340357Y-98572428D02*
X108340357Y-97972428D01*
X108340357Y-98258142D02*
X108683214Y-98258142D01*
X108683214Y-98572428D02*
X108683214Y-97972428D01*
X108940357Y-98401000D02*
X109226071Y-98401000D01*
X108883214Y-98572428D02*
X109083214Y-97972428D01*
X109283214Y-98572428D01*
X109397500Y-97972428D02*
X109740357Y-97972428D01*
X109568928Y-98572428D02*
X109568928Y-97972428D01*
X103683214Y-99138428D02*
X103826071Y-99538428D01*
X103968928Y-99138428D01*
X104511785Y-99538428D02*
X104168928Y-99538428D01*
X104340357Y-99538428D02*
X104340357Y-98938428D01*
X104283214Y-99024142D01*
X104226071Y-99081285D01*
X104168928Y-99109857D01*
X104768928Y-99481285D02*
X104797500Y-99509857D01*
X104768928Y-99538428D01*
X104740357Y-99509857D01*
X104768928Y-99481285D01*
X104768928Y-99538428D01*
X105168928Y-98938428D02*
X105226071Y-98938428D01*
X105283214Y-98967000D01*
X105311785Y-98995571D01*
X105340357Y-99052714D01*
X105368928Y-99167000D01*
X105368928Y-99309857D01*
X105340357Y-99424142D01*
X105311785Y-99481285D01*
X105283214Y-99509857D01*
X105226071Y-99538428D01*
X105168928Y-99538428D01*
X105111785Y-99509857D01*
X105083214Y-99481285D01*
X105054642Y-99424142D01*
X105026071Y-99309857D01*
X105026071Y-99167000D01*
X105054642Y-99052714D01*
X105083214Y-98995571D01*
X105111785Y-98967000D01*
X105168928Y-98938428D01*
X103711785Y-99961571D02*
X103740357Y-99933000D01*
X103797500Y-99904428D01*
X103940357Y-99904428D01*
X103997500Y-99933000D01*
X104026071Y-99961571D01*
X104054642Y-100018714D01*
X104054642Y-100075857D01*
X104026071Y-100161571D01*
X103683214Y-100504428D01*
X104054642Y-100504428D01*
X104397500Y-100161571D02*
X104340357Y-100133000D01*
X104311785Y-100104428D01*
X104283214Y-100047285D01*
X104283214Y-100018714D01*
X104311785Y-99961571D01*
X104340357Y-99933000D01*
X104397500Y-99904428D01*
X104511785Y-99904428D01*
X104568928Y-99933000D01*
X104597500Y-99961571D01*
X104626071Y-100018714D01*
X104626071Y-100047285D01*
X104597500Y-100104428D01*
X104568928Y-100133000D01*
X104511785Y-100161571D01*
X104397500Y-100161571D01*
X104340357Y-100190142D01*
X104311785Y-100218714D01*
X104283214Y-100275857D01*
X104283214Y-100390142D01*
X104311785Y-100447285D01*
X104340357Y-100475857D01*
X104397500Y-100504428D01*
X104511785Y-100504428D01*
X104568928Y-100475857D01*
X104597500Y-100447285D01*
X104626071Y-100390142D01*
X104626071Y-100275857D01*
X104597500Y-100218714D01*
X104568928Y-100190142D01*
X104511785Y-100161571D01*
X104883214Y-100447285D02*
X104911785Y-100475857D01*
X104883214Y-100504428D01*
X104854642Y-100475857D01*
X104883214Y-100447285D01*
X104883214Y-100504428D01*
X105483214Y-100504428D02*
X105140357Y-100504428D01*
X105311785Y-100504428D02*
X105311785Y-99904428D01*
X105254642Y-99990142D01*
X105197500Y-100047285D01*
X105140357Y-100075857D01*
X105711785Y-99961571D02*
X105740357Y-99933000D01*
X105797500Y-99904428D01*
X105940357Y-99904428D01*
X105997500Y-99933000D01*
X106026071Y-99961571D01*
X106054642Y-100018714D01*
X106054642Y-100075857D01*
X106026071Y-100161571D01*
X105683214Y-100504428D01*
X106054642Y-100504428D01*
X106311785Y-100447285D02*
X106340357Y-100475857D01*
X106311785Y-100504428D01*
X106283214Y-100475857D01*
X106311785Y-100447285D01*
X106311785Y-100504428D01*
X106568928Y-99961571D02*
X106597500Y-99933000D01*
X106654642Y-99904428D01*
X106797500Y-99904428D01*
X106854642Y-99933000D01*
X106883214Y-99961571D01*
X106911785Y-100018714D01*
X106911785Y-100075857D01*
X106883214Y-100161571D01*
X106540357Y-100504428D01*
X106911785Y-100504428D01*
X107283214Y-99904428D02*
X107340357Y-99904428D01*
X107397500Y-99933000D01*
X107426071Y-99961571D01*
X107454642Y-100018714D01*
X107483214Y-100133000D01*
X107483214Y-100275857D01*
X107454642Y-100390142D01*
X107426071Y-100447285D01*
X107397500Y-100475857D01*
X107340357Y-100504428D01*
X107283214Y-100504428D01*
X107226071Y-100475857D01*
X107197500Y-100447285D01*
X107168928Y-100390142D01*
X107140357Y-100275857D01*
X107140357Y-100133000D01*
X107168928Y-100018714D01*
X107197500Y-99961571D01*
X107226071Y-99933000D01*
X107283214Y-99904428D01*
X107711785Y-99961571D02*
X107740357Y-99933000D01*
X107797500Y-99904428D01*
X107940357Y-99904428D01*
X107997500Y-99933000D01*
X108026071Y-99961571D01*
X108054642Y-100018714D01*
X108054642Y-100075857D01*
X108026071Y-100161571D01*
X107683214Y-100504428D01*
X108054642Y-100504428D01*
X108283214Y-99961571D02*
X108311785Y-99933000D01*
X108368928Y-99904428D01*
X108511785Y-99904428D01*
X108568928Y-99933000D01*
X108597500Y-99961571D01*
X108626071Y-100018714D01*
X108626071Y-100075857D01*
X108597500Y-100161571D01*
X108254642Y-100504428D01*
X108626071Y-100504428D01*
X103711785Y-101070428D02*
X104140357Y-101070428D01*
X103883214Y-100813285D02*
X103711785Y-101584714D01*
X104083214Y-101327571D02*
X103654642Y-101327571D01*
X103911785Y-101584714D02*
X104083214Y-100813285D01*
X104254642Y-101070428D02*
X104483214Y-101070428D01*
X104340357Y-100870428D02*
X104340357Y-101384714D01*
X104368928Y-101441857D01*
X104426071Y-101470428D01*
X104483214Y-101470428D01*
X104683214Y-101470428D02*
X104683214Y-100870428D01*
X104940357Y-101470428D02*
X104940357Y-101156142D01*
X104911785Y-101099000D01*
X104854642Y-101070428D01*
X104768928Y-101070428D01*
X104711785Y-101099000D01*
X104683214Y-101127571D01*
X105226071Y-101470428D02*
X105226071Y-101070428D01*
X105226071Y-100870428D02*
X105197500Y-100899000D01*
X105226071Y-100927571D01*
X105254642Y-100899000D01*
X105226071Y-100870428D01*
X105226071Y-100927571D01*
X105483214Y-101441857D02*
X105540357Y-101470428D01*
X105654642Y-101470428D01*
X105711785Y-101441857D01*
X105740357Y-101384714D01*
X105740357Y-101356142D01*
X105711785Y-101299000D01*
X105654642Y-101270428D01*
X105568928Y-101270428D01*
X105511785Y-101241857D01*
X105483214Y-101184714D01*
X105483214Y-101156142D01*
X105511785Y-101099000D01*
X105568928Y-101070428D01*
X105654642Y-101070428D01*
X105711785Y-101099000D01*
X105997500Y-101470428D02*
X105997500Y-101070428D01*
X105997500Y-100870428D02*
X105968928Y-100899000D01*
X105997500Y-100927571D01*
X106026071Y-100899000D01*
X105997500Y-100870428D01*
X105997500Y-100927571D01*
X106254642Y-101441857D02*
X106311785Y-101470428D01*
X106426071Y-101470428D01*
X106483214Y-101441857D01*
X106511785Y-101384714D01*
X106511785Y-101356142D01*
X106483214Y-101299000D01*
X106426071Y-101270428D01*
X106340357Y-101270428D01*
X106283214Y-101241857D01*
X106254642Y-101184714D01*
X106254642Y-101156142D01*
X106283214Y-101099000D01*
X106340357Y-101070428D01*
X106426071Y-101070428D01*
X106483214Y-101099000D01*
X106768928Y-101070428D02*
X106768928Y-101584714D01*
X106740357Y-101641857D01*
X106683214Y-101670428D01*
X106654642Y-101670428D01*
X106768928Y-100870428D02*
X106740357Y-100899000D01*
X106768928Y-100927571D01*
X106797500Y-100899000D01*
X106768928Y-100870428D01*
X106768928Y-100927571D01*
X107140357Y-101470428D02*
X107083214Y-101441857D01*
X107054642Y-101413285D01*
X107026071Y-101356142D01*
X107026071Y-101184714D01*
X107054642Y-101127571D01*
X107083214Y-101099000D01*
X107140357Y-101070428D01*
X107226071Y-101070428D01*
X107283214Y-101099000D01*
X107311785Y-101127571D01*
X107340357Y-101184714D01*
X107340357Y-101356142D01*
X107311785Y-101413285D01*
X107283214Y-101441857D01*
X107226071Y-101470428D01*
X107140357Y-101470428D01*
X107540357Y-101070428D02*
X107683214Y-101470428D01*
X107826071Y-101070428D02*
X107683214Y-101470428D01*
X107626071Y-101613285D01*
X107597500Y-101641857D01*
X107540357Y-101670428D01*
X108054642Y-101070428D02*
X108054642Y-101584714D01*
X108026071Y-101641857D01*
X107968928Y-101670428D01*
X107940357Y-101670428D01*
X108054642Y-100870428D02*
X108026071Y-100899000D01*
X108054642Y-100927571D01*
X108083214Y-100899000D01*
X108054642Y-100870428D01*
X108054642Y-100927571D01*
X108597500Y-101470428D02*
X108597500Y-101156142D01*
X108568928Y-101099000D01*
X108511785Y-101070428D01*
X108397500Y-101070428D01*
X108340357Y-101099000D01*
X108597500Y-101441857D02*
X108540357Y-101470428D01*
X108397500Y-101470428D01*
X108340357Y-101441857D01*
X108311785Y-101384714D01*
X108311785Y-101327571D01*
X108340357Y-101270428D01*
X108397500Y-101241857D01*
X108540357Y-101241857D01*
X108597500Y-101213285D01*
X109140357Y-101441857D02*
X109083214Y-101470428D01*
X108968928Y-101470428D01*
X108911785Y-101441857D01*
X108883214Y-101413285D01*
X108854642Y-101356142D01*
X108854642Y-101184714D01*
X108883214Y-101127571D01*
X108911785Y-101099000D01*
X108968928Y-101070428D01*
X109083214Y-101070428D01*
X109140357Y-101099000D01*
X109483214Y-101470428D02*
X109426071Y-101441857D01*
X109397500Y-101413285D01*
X109368928Y-101356142D01*
X109368928Y-101184714D01*
X109397500Y-101127571D01*
X109426071Y-101099000D01*
X109483214Y-101070428D01*
X109568928Y-101070428D01*
X109626071Y-101099000D01*
X109654642Y-101127571D01*
X109683214Y-101184714D01*
X109683214Y-101356142D01*
X109654642Y-101413285D01*
X109626071Y-101441857D01*
X109568928Y-101470428D01*
X109483214Y-101470428D01*
X109940357Y-101470428D02*
X109940357Y-100870428D01*
X109940357Y-101099000D02*
X109997500Y-101070428D01*
X110111785Y-101070428D01*
X110168928Y-101099000D01*
X110197500Y-101127571D01*
X110226071Y-101184714D01*
X110226071Y-101356142D01*
X110197500Y-101413285D01*
X110168928Y-101441857D01*
X110111785Y-101470428D01*
X109997500Y-101470428D01*
X109940357Y-101441857D01*
%TO.C,U1*%
X133558095Y-48532380D02*
X133558095Y-49341904D01*
X133605714Y-49437142D01*
X133653333Y-49484761D01*
X133748571Y-49532380D01*
X133939047Y-49532380D01*
X134034285Y-49484761D01*
X134081904Y-49437142D01*
X134129523Y-49341904D01*
X134129523Y-48532380D01*
X135129523Y-49532380D02*
X134558095Y-49532380D01*
X134843809Y-49532380D02*
X134843809Y-48532380D01*
X134748571Y-48675238D01*
X134653333Y-48770476D01*
X134558095Y-48818095D01*
%TO.C,D9*%
X147661904Y-100602380D02*
X147661904Y-99602380D01*
X147900000Y-99602380D01*
X148042857Y-99650000D01*
X148138095Y-99745238D01*
X148185714Y-99840476D01*
X148233333Y-100030952D01*
X148233333Y-100173809D01*
X148185714Y-100364285D01*
X148138095Y-100459523D01*
X148042857Y-100554761D01*
X147900000Y-100602380D01*
X147661904Y-100602380D01*
X148709523Y-100602380D02*
X148900000Y-100602380D01*
X148995238Y-100554761D01*
X149042857Y-100507142D01*
X149138095Y-100364285D01*
X149185714Y-100173809D01*
X149185714Y-99792857D01*
X149138095Y-99697619D01*
X149090476Y-99650000D01*
X148995238Y-99602380D01*
X148804761Y-99602380D01*
X148709523Y-99650000D01*
X148661904Y-99697619D01*
X148614285Y-99792857D01*
X148614285Y-100030952D01*
X148661904Y-100126190D01*
X148709523Y-100173809D01*
X148804761Y-100221428D01*
X148995238Y-100221428D01*
X149090476Y-100173809D01*
X149138095Y-100126190D01*
X149185714Y-100030952D01*
X152835714Y-98702380D02*
X152264285Y-98702380D01*
X152550000Y-98702380D02*
X152550000Y-97702380D01*
X152454761Y-97845238D01*
X152359523Y-97940476D01*
X152264285Y-97988095D01*
%TO.C,D4*%
X116761904Y-85652380D02*
X116761904Y-84652380D01*
X117000000Y-84652380D01*
X117142857Y-84700000D01*
X117238095Y-84795238D01*
X117285714Y-84890476D01*
X117333333Y-85080952D01*
X117333333Y-85223809D01*
X117285714Y-85414285D01*
X117238095Y-85509523D01*
X117142857Y-85604761D01*
X117000000Y-85652380D01*
X116761904Y-85652380D01*
X118190476Y-84985714D02*
X118190476Y-85652380D01*
X117952380Y-84604761D02*
X117714285Y-85319047D01*
X118333333Y-85319047D01*
X122835714Y-83702380D02*
X122264285Y-83702380D01*
X122550000Y-83702380D02*
X122550000Y-82702380D01*
X122454761Y-82845238D01*
X122359523Y-82940476D01*
X122264285Y-82988095D01*
%TO.C,D3*%
X147661904Y-70602380D02*
X147661904Y-69602380D01*
X147900000Y-69602380D01*
X148042857Y-69650000D01*
X148138095Y-69745238D01*
X148185714Y-69840476D01*
X148233333Y-70030952D01*
X148233333Y-70173809D01*
X148185714Y-70364285D01*
X148138095Y-70459523D01*
X148042857Y-70554761D01*
X147900000Y-70602380D01*
X147661904Y-70602380D01*
X148566666Y-69602380D02*
X149185714Y-69602380D01*
X148852380Y-69983333D01*
X148995238Y-69983333D01*
X149090476Y-70030952D01*
X149138095Y-70078571D01*
X149185714Y-70173809D01*
X149185714Y-70411904D01*
X149138095Y-70507142D01*
X149090476Y-70554761D01*
X148995238Y-70602380D01*
X148709523Y-70602380D01*
X148614285Y-70554761D01*
X148566666Y-70507142D01*
X152835714Y-68702380D02*
X152264285Y-68702380D01*
X152550000Y-68702380D02*
X152550000Y-67702380D01*
X152454761Y-67845238D01*
X152359523Y-67940476D01*
X152264285Y-67988095D01*
%TO.C,D2*%
X132661904Y-70602380D02*
X132661904Y-69602380D01*
X132900000Y-69602380D01*
X133042857Y-69650000D01*
X133138095Y-69745238D01*
X133185714Y-69840476D01*
X133233333Y-70030952D01*
X133233333Y-70173809D01*
X133185714Y-70364285D01*
X133138095Y-70459523D01*
X133042857Y-70554761D01*
X132900000Y-70602380D01*
X132661904Y-70602380D01*
X133614285Y-69697619D02*
X133661904Y-69650000D01*
X133757142Y-69602380D01*
X133995238Y-69602380D01*
X134090476Y-69650000D01*
X134138095Y-69697619D01*
X134185714Y-69792857D01*
X134185714Y-69888095D01*
X134138095Y-70030952D01*
X133566666Y-70602380D01*
X134185714Y-70602380D01*
X137835714Y-68702380D02*
X137264285Y-68702380D01*
X137550000Y-68702380D02*
X137550000Y-67702380D01*
X137454761Y-67845238D01*
X137359523Y-67940476D01*
X137264285Y-67988095D01*
%TO.C,D8*%
X132661904Y-100602380D02*
X132661904Y-99602380D01*
X132900000Y-99602380D01*
X133042857Y-99650000D01*
X133138095Y-99745238D01*
X133185714Y-99840476D01*
X133233333Y-100030952D01*
X133233333Y-100173809D01*
X133185714Y-100364285D01*
X133138095Y-100459523D01*
X133042857Y-100554761D01*
X132900000Y-100602380D01*
X132661904Y-100602380D01*
X133804761Y-100030952D02*
X133709523Y-99983333D01*
X133661904Y-99935714D01*
X133614285Y-99840476D01*
X133614285Y-99792857D01*
X133661904Y-99697619D01*
X133709523Y-99650000D01*
X133804761Y-99602380D01*
X133995238Y-99602380D01*
X134090476Y-99650000D01*
X134138095Y-99697619D01*
X134185714Y-99792857D01*
X134185714Y-99840476D01*
X134138095Y-99935714D01*
X134090476Y-99983333D01*
X133995238Y-100030952D01*
X133804761Y-100030952D01*
X133709523Y-100078571D01*
X133661904Y-100126190D01*
X133614285Y-100221428D01*
X133614285Y-100411904D01*
X133661904Y-100507142D01*
X133709523Y-100554761D01*
X133804761Y-100602380D01*
X133995238Y-100602380D01*
X134090476Y-100554761D01*
X134138095Y-100507142D01*
X134185714Y-100411904D01*
X134185714Y-100221428D01*
X134138095Y-100126190D01*
X134090476Y-100078571D01*
X133995238Y-100030952D01*
X137835714Y-98702380D02*
X137264285Y-98702380D01*
X137550000Y-98702380D02*
X137550000Y-97702380D01*
X137454761Y-97845238D01*
X137359523Y-97940476D01*
X137264285Y-97988095D01*
%TO.C,D5*%
X128961904Y-85702380D02*
X128961904Y-84702380D01*
X129200000Y-84702380D01*
X129342857Y-84750000D01*
X129438095Y-84845238D01*
X129485714Y-84940476D01*
X129533333Y-85130952D01*
X129533333Y-85273809D01*
X129485714Y-85464285D01*
X129438095Y-85559523D01*
X129342857Y-85654761D01*
X129200000Y-85702380D01*
X128961904Y-85702380D01*
X130438095Y-84702380D02*
X129961904Y-84702380D01*
X129914285Y-85178571D01*
X129961904Y-85130952D01*
X130057142Y-85083333D01*
X130295238Y-85083333D01*
X130390476Y-85130952D01*
X130438095Y-85178571D01*
X130485714Y-85273809D01*
X130485714Y-85511904D01*
X130438095Y-85607142D01*
X130390476Y-85654761D01*
X130295238Y-85702380D01*
X130057142Y-85702380D01*
X129961904Y-85654761D01*
X129914285Y-85607142D01*
X137835714Y-83702380D02*
X137264285Y-83702380D01*
X137550000Y-83702380D02*
X137550000Y-82702380D01*
X137454761Y-82845238D01*
X137359523Y-82940476D01*
X137264285Y-82988095D01*
%TO.C,D7*%
X117661904Y-100602380D02*
X117661904Y-99602380D01*
X117900000Y-99602380D01*
X118042857Y-99650000D01*
X118138095Y-99745238D01*
X118185714Y-99840476D01*
X118233333Y-100030952D01*
X118233333Y-100173809D01*
X118185714Y-100364285D01*
X118138095Y-100459523D01*
X118042857Y-100554761D01*
X117900000Y-100602380D01*
X117661904Y-100602380D01*
X118566666Y-99602380D02*
X119233333Y-99602380D01*
X118804761Y-100602380D01*
X122835714Y-98702380D02*
X122264285Y-98702380D01*
X122550000Y-98702380D02*
X122550000Y-97702380D01*
X122454761Y-97845238D01*
X122359523Y-97940476D01*
X122264285Y-97988095D01*
%TO.C,D6*%
X142911904Y-84802380D02*
X142911904Y-83802380D01*
X143150000Y-83802380D01*
X143292857Y-83850000D01*
X143388095Y-83945238D01*
X143435714Y-84040476D01*
X143483333Y-84230952D01*
X143483333Y-84373809D01*
X143435714Y-84564285D01*
X143388095Y-84659523D01*
X143292857Y-84754761D01*
X143150000Y-84802380D01*
X142911904Y-84802380D01*
X144340476Y-83802380D02*
X144150000Y-83802380D01*
X144054761Y-83850000D01*
X144007142Y-83897619D01*
X143911904Y-84040476D01*
X143864285Y-84230952D01*
X143864285Y-84611904D01*
X143911904Y-84707142D01*
X143959523Y-84754761D01*
X144054761Y-84802380D01*
X144245238Y-84802380D01*
X144340476Y-84754761D01*
X144388095Y-84707142D01*
X144435714Y-84611904D01*
X144435714Y-84373809D01*
X144388095Y-84278571D01*
X144340476Y-84230952D01*
X144245238Y-84183333D01*
X144054761Y-84183333D01*
X143959523Y-84230952D01*
X143911904Y-84278571D01*
X143864285Y-84373809D01*
X152835714Y-83702380D02*
X152264285Y-83702380D01*
X152550000Y-83702380D02*
X152550000Y-82702380D01*
X152454761Y-82845238D01*
X152359523Y-82940476D01*
X152264285Y-82988095D01*
%TO.C,D1*%
X117661904Y-70602380D02*
X117661904Y-69602380D01*
X117900000Y-69602380D01*
X118042857Y-69650000D01*
X118138095Y-69745238D01*
X118185714Y-69840476D01*
X118233333Y-70030952D01*
X118233333Y-70173809D01*
X118185714Y-70364285D01*
X118138095Y-70459523D01*
X118042857Y-70554761D01*
X117900000Y-70602380D01*
X117661904Y-70602380D01*
X119185714Y-70602380D02*
X118614285Y-70602380D01*
X118900000Y-70602380D02*
X118900000Y-69602380D01*
X118804761Y-69745238D01*
X118709523Y-69840476D01*
X118614285Y-69888095D01*
X122835714Y-68702380D02*
X122264285Y-68702380D01*
X122550000Y-68702380D02*
X122550000Y-67702380D01*
X122454761Y-67845238D01*
X122359523Y-67940476D01*
X122264285Y-67988095D01*
D11*
%TO.C,U1*%
X166880000Y-53580000D02*
G75*
G03*
X163820000Y-50520000I-3059999J1D01*
G01*
X101760000Y-77580000D02*
G75*
G03*
X104820000Y-80640000I3060000J0D01*
G01*
X104820000Y-50520000D02*
G75*
G03*
X101760000Y-53580000I-1J-3059999D01*
G01*
X163820000Y-80640000D02*
G75*
G03*
X166880000Y-77580000I0J3060000D01*
G01*
X100560000Y-74140000D02*
X101760000Y-74140000D01*
X100560000Y-57020000D02*
X100560000Y-74140000D01*
X159780000Y-56680000D02*
X158450000Y-56680000D01*
X160130000Y-81340000D02*
X160130000Y-80640000D01*
X101760000Y-57020000D02*
X101760000Y-53580000D01*
X101760000Y-74140000D02*
X101760000Y-77580000D01*
X121360000Y-82440000D02*
X129480000Y-82440000D01*
X148710000Y-80640000D02*
X148710000Y-81340000D01*
X129480000Y-80640000D02*
X148710000Y-80640000D01*
X157180000Y-54080000D02*
X157180000Y-56680000D01*
X129480000Y-82440000D02*
X129480000Y-80640000D01*
X160130000Y-80640000D02*
X163820000Y-80640000D01*
X166880000Y-53580000D02*
X166880000Y-77580000D01*
X159780000Y-51480000D02*
X108860000Y-51480000D01*
X101760000Y-57020000D02*
X100560000Y-57020000D01*
X104820000Y-50520000D02*
X163820000Y-50520000D01*
X159780000Y-54080000D02*
X157180000Y-54080000D01*
X159780000Y-55350000D02*
X159780000Y-56680000D01*
X108760000Y-82440000D02*
X116880000Y-82440000D01*
X108860000Y-51480000D02*
X108860000Y-56680000D01*
X116880000Y-82440000D02*
X116880000Y-80640000D01*
X108760000Y-80640000D02*
X108760000Y-82440000D01*
X121360000Y-80640000D02*
X121360000Y-82440000D01*
X159780000Y-51480000D02*
X159780000Y-54080000D01*
X104820000Y-80640000D02*
X108760000Y-80640000D01*
X148710000Y-81340000D02*
X160130000Y-81340000D01*
X116880000Y-80640000D02*
X121360000Y-80640000D01*
X157180000Y-56680000D02*
X108860000Y-56680000D01*
%TO.C,D9*%
X152050000Y-99400000D02*
X144750000Y-99400000D01*
X152050000Y-93900000D02*
X144750000Y-93900000D01*
X144750000Y-93900000D02*
X144750000Y-95050000D01*
%TO.C,D4*%
X122050000Y-84400000D02*
X114750000Y-84400000D01*
X122050000Y-78900000D02*
X114750000Y-78900000D01*
X114750000Y-78900000D02*
X114750000Y-80050000D01*
%TO.C,D3*%
X152050000Y-69400000D02*
X144750000Y-69400000D01*
X152050000Y-63900000D02*
X144750000Y-63900000D01*
X144750000Y-63900000D02*
X144750000Y-65050000D01*
%TO.C,D2*%
X137050000Y-69400000D02*
X129750000Y-69400000D01*
X137050000Y-63900000D02*
X129750000Y-63900000D01*
X129750000Y-63900000D02*
X129750000Y-65050000D01*
%TO.C,D8*%
X137050000Y-99400000D02*
X129750000Y-99400000D01*
X137050000Y-93900000D02*
X129750000Y-93900000D01*
X129750000Y-93900000D02*
X129750000Y-95050000D01*
%TO.C,D5*%
X129750000Y-78900000D02*
X129750000Y-80050000D01*
X137050000Y-78900000D02*
X129750000Y-78900000D01*
X137050000Y-84400000D02*
X129750000Y-84400000D01*
%TO.C,D7*%
X122050000Y-99400000D02*
X114750000Y-99400000D01*
X122050000Y-93900000D02*
X114750000Y-93900000D01*
X114750000Y-93900000D02*
X114750000Y-95050000D01*
%TO.C,D6*%
X152050000Y-84400000D02*
X144750000Y-84400000D01*
X152050000Y-78900000D02*
X144750000Y-78900000D01*
X144750000Y-78900000D02*
X144750000Y-80050000D01*
%TO.C,D1*%
X122050000Y-69400000D02*
X114750000Y-69400000D01*
X122050000Y-63900000D02*
X114750000Y-63900000D01*
X114750000Y-63900000D02*
X114750000Y-65050000D01*
%TD*%
M02*
