%TF.GenerationSoftware,KiCad,Pcbnew,(6.0.5)*%
%TF.CreationDate,2022-12-29T01:36:19+05:30*%
%TF.ProjectId,rpi_hat,7270695f-6861-4742-9e6b-696361645f70,rev?*%
%TF.SameCoordinates,Original*%
%TF.FileFunction,Legend,Bot*%
%TF.FilePolarity,Positive*%
%FSLAX46Y46*%
G04 Gerber Fmt 4.6, Leading zero omitted, Abs format (unit mm)*
G04 Created by KiCad (PCBNEW (6.0.5)) date 2022-12-29 01:36:19*
%MOMM*%
%LPD*%
G01*
G04 APERTURE LIST*
%ADD10C,0.150000*%
G04 APERTURE END LIST*
D10*
X179066785Y-98472428D02*
X179266785Y-98186714D01*
X179409642Y-98472428D02*
X179409642Y-97872428D01*
X179181071Y-97872428D01*
X179123928Y-97901000D01*
X179095357Y-97929571D01*
X179066785Y-97986714D01*
X179066785Y-98072428D01*
X179095357Y-98129571D01*
X179123928Y-98158142D01*
X179181071Y-98186714D01*
X179409642Y-98186714D01*
X178809642Y-98472428D02*
X178809642Y-97872428D01*
X178581071Y-97872428D01*
X178523928Y-97901000D01*
X178495357Y-97929571D01*
X178466785Y-97986714D01*
X178466785Y-98072428D01*
X178495357Y-98129571D01*
X178523928Y-98158142D01*
X178581071Y-98186714D01*
X178809642Y-98186714D01*
X178209642Y-98472428D02*
X178209642Y-97872428D01*
X177923928Y-98243857D02*
X177466785Y-98243857D01*
X176895357Y-98472428D02*
X177181071Y-98472428D01*
X177181071Y-97872428D01*
X176695357Y-98158142D02*
X176495357Y-98158142D01*
X176409642Y-98472428D02*
X176695357Y-98472428D01*
X176695357Y-97872428D01*
X176409642Y-97872428D01*
X176152500Y-98472428D02*
X176152500Y-97872428D01*
X176009642Y-97872428D01*
X175923928Y-97901000D01*
X175866785Y-97958142D01*
X175838214Y-98015285D01*
X175809642Y-98129571D01*
X175809642Y-98215285D01*
X175838214Y-98329571D01*
X175866785Y-98386714D01*
X175923928Y-98443857D01*
X176009642Y-98472428D01*
X176152500Y-98472428D01*
X175552500Y-98243857D02*
X175095357Y-98243857D01*
X174809642Y-98472428D02*
X174809642Y-97872428D01*
X174809642Y-98158142D02*
X174466785Y-98158142D01*
X174466785Y-98472428D02*
X174466785Y-97872428D01*
X174209642Y-98301000D02*
X173923928Y-98301000D01*
X174266785Y-98472428D02*
X174066785Y-97872428D01*
X173866785Y-98472428D01*
X173752500Y-97872428D02*
X173409642Y-97872428D01*
X173581071Y-98472428D02*
X173581071Y-97872428D01*
X179466785Y-99038428D02*
X179323928Y-99438428D01*
X179181071Y-99038428D01*
X178638214Y-99438428D02*
X178981071Y-99438428D01*
X178809642Y-99438428D02*
X178809642Y-98838428D01*
X178866785Y-98924142D01*
X178923928Y-98981285D01*
X178981071Y-99009857D01*
X178381071Y-99381285D02*
X178352500Y-99409857D01*
X178381071Y-99438428D01*
X178409642Y-99409857D01*
X178381071Y-99381285D01*
X178381071Y-99438428D01*
X177981071Y-98838428D02*
X177923928Y-98838428D01*
X177866785Y-98867000D01*
X177838214Y-98895571D01*
X177809642Y-98952714D01*
X177781071Y-99067000D01*
X177781071Y-99209857D01*
X177809642Y-99324142D01*
X177838214Y-99381285D01*
X177866785Y-99409857D01*
X177923928Y-99438428D01*
X177981071Y-99438428D01*
X178038214Y-99409857D01*
X178066785Y-99381285D01*
X178095357Y-99324142D01*
X178123928Y-99209857D01*
X178123928Y-99067000D01*
X178095357Y-98952714D01*
X178066785Y-98895571D01*
X178038214Y-98867000D01*
X177981071Y-98838428D01*
X179438214Y-99861571D02*
X179409642Y-99833000D01*
X179352500Y-99804428D01*
X179209642Y-99804428D01*
X179152500Y-99833000D01*
X179123928Y-99861571D01*
X179095357Y-99918714D01*
X179095357Y-99975857D01*
X179123928Y-100061571D01*
X179466785Y-100404428D01*
X179095357Y-100404428D01*
X178752500Y-100061571D02*
X178809642Y-100033000D01*
X178838214Y-100004428D01*
X178866785Y-99947285D01*
X178866785Y-99918714D01*
X178838214Y-99861571D01*
X178809642Y-99833000D01*
X178752500Y-99804428D01*
X178638214Y-99804428D01*
X178581071Y-99833000D01*
X178552500Y-99861571D01*
X178523928Y-99918714D01*
X178523928Y-99947285D01*
X178552500Y-100004428D01*
X178581071Y-100033000D01*
X178638214Y-100061571D01*
X178752500Y-100061571D01*
X178809642Y-100090142D01*
X178838214Y-100118714D01*
X178866785Y-100175857D01*
X178866785Y-100290142D01*
X178838214Y-100347285D01*
X178809642Y-100375857D01*
X178752500Y-100404428D01*
X178638214Y-100404428D01*
X178581071Y-100375857D01*
X178552500Y-100347285D01*
X178523928Y-100290142D01*
X178523928Y-100175857D01*
X178552500Y-100118714D01*
X178581071Y-100090142D01*
X178638214Y-100061571D01*
X178266785Y-100347285D02*
X178238214Y-100375857D01*
X178266785Y-100404428D01*
X178295357Y-100375857D01*
X178266785Y-100347285D01*
X178266785Y-100404428D01*
X177666785Y-100404428D02*
X178009642Y-100404428D01*
X177838214Y-100404428D02*
X177838214Y-99804428D01*
X177895357Y-99890142D01*
X177952500Y-99947285D01*
X178009642Y-99975857D01*
X177438214Y-99861571D02*
X177409642Y-99833000D01*
X177352500Y-99804428D01*
X177209642Y-99804428D01*
X177152500Y-99833000D01*
X177123928Y-99861571D01*
X177095357Y-99918714D01*
X177095357Y-99975857D01*
X177123928Y-100061571D01*
X177466785Y-100404428D01*
X177095357Y-100404428D01*
X176838214Y-100347285D02*
X176809642Y-100375857D01*
X176838214Y-100404428D01*
X176866785Y-100375857D01*
X176838214Y-100347285D01*
X176838214Y-100404428D01*
X176581071Y-99861571D02*
X176552500Y-99833000D01*
X176495357Y-99804428D01*
X176352500Y-99804428D01*
X176295357Y-99833000D01*
X176266785Y-99861571D01*
X176238214Y-99918714D01*
X176238214Y-99975857D01*
X176266785Y-100061571D01*
X176609642Y-100404428D01*
X176238214Y-100404428D01*
X175866785Y-99804428D02*
X175809642Y-99804428D01*
X175752500Y-99833000D01*
X175723928Y-99861571D01*
X175695357Y-99918714D01*
X175666785Y-100033000D01*
X175666785Y-100175857D01*
X175695357Y-100290142D01*
X175723928Y-100347285D01*
X175752500Y-100375857D01*
X175809642Y-100404428D01*
X175866785Y-100404428D01*
X175923928Y-100375857D01*
X175952500Y-100347285D01*
X175981071Y-100290142D01*
X176009642Y-100175857D01*
X176009642Y-100033000D01*
X175981071Y-99918714D01*
X175952500Y-99861571D01*
X175923928Y-99833000D01*
X175866785Y-99804428D01*
X175438214Y-99861571D02*
X175409642Y-99833000D01*
X175352500Y-99804428D01*
X175209642Y-99804428D01*
X175152500Y-99833000D01*
X175123928Y-99861571D01*
X175095357Y-99918714D01*
X175095357Y-99975857D01*
X175123928Y-100061571D01*
X175466785Y-100404428D01*
X175095357Y-100404428D01*
X174866785Y-99861571D02*
X174838214Y-99833000D01*
X174781071Y-99804428D01*
X174638214Y-99804428D01*
X174581071Y-99833000D01*
X174552500Y-99861571D01*
X174523928Y-99918714D01*
X174523928Y-99975857D01*
X174552500Y-100061571D01*
X174895357Y-100404428D01*
X174523928Y-100404428D01*
X179438214Y-100970428D02*
X179009642Y-100970428D01*
X179266785Y-100713285D02*
X179438214Y-101484714D01*
X179066785Y-101227571D02*
X179495357Y-101227571D01*
X179238214Y-101484714D02*
X179066785Y-100713285D01*
X178895357Y-100970428D02*
X178666785Y-100970428D01*
X178809642Y-100770428D02*
X178809642Y-101284714D01*
X178781071Y-101341857D01*
X178723928Y-101370428D01*
X178666785Y-101370428D01*
X178466785Y-101370428D02*
X178466785Y-100770428D01*
X178209642Y-101370428D02*
X178209642Y-101056142D01*
X178238214Y-100999000D01*
X178295357Y-100970428D01*
X178381071Y-100970428D01*
X178438214Y-100999000D01*
X178466785Y-101027571D01*
X177923928Y-101370428D02*
X177923928Y-100970428D01*
X177923928Y-100770428D02*
X177952500Y-100799000D01*
X177923928Y-100827571D01*
X177895357Y-100799000D01*
X177923928Y-100770428D01*
X177923928Y-100827571D01*
X177666785Y-101341857D02*
X177609642Y-101370428D01*
X177495357Y-101370428D01*
X177438214Y-101341857D01*
X177409642Y-101284714D01*
X177409642Y-101256142D01*
X177438214Y-101199000D01*
X177495357Y-101170428D01*
X177581071Y-101170428D01*
X177638214Y-101141857D01*
X177666785Y-101084714D01*
X177666785Y-101056142D01*
X177638214Y-100999000D01*
X177581071Y-100970428D01*
X177495357Y-100970428D01*
X177438214Y-100999000D01*
X177152500Y-101370428D02*
X177152500Y-100970428D01*
X177152500Y-100770428D02*
X177181071Y-100799000D01*
X177152500Y-100827571D01*
X177123928Y-100799000D01*
X177152500Y-100770428D01*
X177152500Y-100827571D01*
X176895357Y-101341857D02*
X176838214Y-101370428D01*
X176723928Y-101370428D01*
X176666785Y-101341857D01*
X176638214Y-101284714D01*
X176638214Y-101256142D01*
X176666785Y-101199000D01*
X176723928Y-101170428D01*
X176809642Y-101170428D01*
X176866785Y-101141857D01*
X176895357Y-101084714D01*
X176895357Y-101056142D01*
X176866785Y-100999000D01*
X176809642Y-100970428D01*
X176723928Y-100970428D01*
X176666785Y-100999000D01*
X176381071Y-100970428D02*
X176381071Y-101484714D01*
X176409642Y-101541857D01*
X176466785Y-101570428D01*
X176495357Y-101570428D01*
X176381071Y-100770428D02*
X176409642Y-100799000D01*
X176381071Y-100827571D01*
X176352500Y-100799000D01*
X176381071Y-100770428D01*
X176381071Y-100827571D01*
X176009642Y-101370428D02*
X176066785Y-101341857D01*
X176095357Y-101313285D01*
X176123928Y-101256142D01*
X176123928Y-101084714D01*
X176095357Y-101027571D01*
X176066785Y-100999000D01*
X176009642Y-100970428D01*
X175923928Y-100970428D01*
X175866785Y-100999000D01*
X175838214Y-101027571D01*
X175809642Y-101084714D01*
X175809642Y-101256142D01*
X175838214Y-101313285D01*
X175866785Y-101341857D01*
X175923928Y-101370428D01*
X176009642Y-101370428D01*
X175609642Y-100970428D02*
X175466785Y-101370428D01*
X175323928Y-100970428D02*
X175466785Y-101370428D01*
X175523928Y-101513285D01*
X175552500Y-101541857D01*
X175609642Y-101570428D01*
X175095357Y-100970428D02*
X175095357Y-101484714D01*
X175123928Y-101541857D01*
X175181071Y-101570428D01*
X175209642Y-101570428D01*
X175095357Y-100770428D02*
X175123928Y-100799000D01*
X175095357Y-100827571D01*
X175066785Y-100799000D01*
X175095357Y-100770428D01*
X175095357Y-100827571D01*
X174552500Y-101370428D02*
X174552500Y-101056142D01*
X174581071Y-100999000D01*
X174638214Y-100970428D01*
X174752500Y-100970428D01*
X174809642Y-100999000D01*
X174552500Y-101341857D02*
X174609642Y-101370428D01*
X174752500Y-101370428D01*
X174809642Y-101341857D01*
X174838214Y-101284714D01*
X174838214Y-101227571D01*
X174809642Y-101170428D01*
X174752500Y-101141857D01*
X174609642Y-101141857D01*
X174552500Y-101113285D01*
X174009642Y-101341857D02*
X174066785Y-101370428D01*
X174181071Y-101370428D01*
X174238214Y-101341857D01*
X174266785Y-101313285D01*
X174295357Y-101256142D01*
X174295357Y-101084714D01*
X174266785Y-101027571D01*
X174238214Y-100999000D01*
X174181071Y-100970428D01*
X174066785Y-100970428D01*
X174009642Y-100999000D01*
X173666785Y-101370428D02*
X173723928Y-101341857D01*
X173752500Y-101313285D01*
X173781071Y-101256142D01*
X173781071Y-101084714D01*
X173752500Y-101027571D01*
X173723928Y-100999000D01*
X173666785Y-100970428D01*
X173581071Y-100970428D01*
X173523928Y-100999000D01*
X173495357Y-101027571D01*
X173466785Y-101084714D01*
X173466785Y-101256142D01*
X173495357Y-101313285D01*
X173523928Y-101341857D01*
X173581071Y-101370428D01*
X173666785Y-101370428D01*
X173209642Y-101370428D02*
X173209642Y-100770428D01*
X173209642Y-100999000D02*
X173152500Y-100970428D01*
X173038214Y-100970428D01*
X172981071Y-100999000D01*
X172952500Y-101027571D01*
X172923928Y-101084714D01*
X172923928Y-101256142D01*
X172952500Y-101313285D01*
X172981071Y-101341857D01*
X173038214Y-101370428D01*
X173152500Y-101370428D01*
X173209642Y-101341857D01*
M02*
