M48
; DRILL file {KiCad (6.0.5)} date Thu Dec 29 01:36:14 2022
; FORMAT={-:-/ absolute / inch / decimal}
; #@! TF.CreationDate,2022-12-29T01:36:14+05:30
; #@! TF.GenerationSoftware,Kicad,Pcbnew,(6.0.5)
; #@! TF.FileFunction,Plated,1,2,PTH
FMAT,2
INCH
; #@! TA.AperFunction,Plated,PTH,ComponentDrill
T1C0.0400
; #@! TA.AperFunction,Plated,PTH,ComponentDrill
T2C0.1083
%
G90
G05
T1
X4.2744Y-2.0524
X4.2744Y-2.1524
X4.3744Y-2.0524
X4.3744Y-2.1524
X4.4744Y-2.0524
X4.4744Y-2.1524
X4.5744Y-2.0524
X4.5744Y-2.1524
X4.6744Y-2.0524
X4.6744Y-2.1524
X4.7744Y-2.0524
X4.7744Y-2.1524
X4.8744Y-2.0524
X4.8744Y-2.1524
X4.9744Y-2.0524
X4.9744Y-2.1524
X5.0744Y-2.0524
X5.0744Y-2.1524
X5.1744Y-2.0524
X5.1744Y-2.1524
X5.2744Y-2.0524
X5.2744Y-2.1524
X5.3744Y-2.0524
X5.3744Y-2.1524
X5.4744Y-2.0524
X5.4744Y-2.1524
X5.5744Y-2.0524
X5.5744Y-2.1524
X5.6744Y-2.0524
X5.6744Y-2.1524
X5.7744Y-2.0524
X5.7744Y-2.1524
X5.8744Y-2.0524
X5.8744Y-2.1524
X5.9744Y-2.0524
X5.9744Y-2.1524
X6.0744Y-2.0524
X6.0744Y-2.1524
X6.1744Y-2.0524
X6.1744Y-2.1524
T2
X4.0827Y-2.1024
X4.0827Y-4.0315
X6.3661Y-2.1024
X6.3661Y-4.0315
T0
M30
